<?xml version="1.0" encoding="UTF-8"?>
<svg id="_1" data-name="1" xmlns="http://www.w3.org/2000/svg" viewBox="0 0 600 600">
  <defs>
    <style>
      .cls-1 {
        fill: #0c2f4b;
      }

      .cls-2 {
        fill: #164364;
        isolation: isolate;
      }
    </style>
  </defs>
  <g id="icon">
    <g id="Byzon">
      <g>
        <path class="cls-1" d="M7.34,568.84v-93.89h66.98c6.35,0,11.56.67,15.62,1.98,4.07,1.33,7.08,3.67,9.03,7.04,1.95,3.36,2.93,8.12,2.93,14.27,0,5.54-1.15,10.13-3.45,13.75-2.3,3.63-5.82,5.62-10.56,5.99,6.2.69,10.67,3.17,13.41,7.43,2.74,4.26,4.1,9.6,4.1,16.04,0,5.58-.57,10.17-1.72,13.75-1.15,3.59-3.07,6.37-5.77,8.35-2.7,1.98-6.36,3.35-10.97,4.12-4.61.77-10.37,1.16-17.26,1.16H7.34ZM17.85,514.07h48.97c5.65,0,10.29-.22,13.9-.67,3.61-.45,6.29-1.77,8.04-3.97,1.75-2.2,2.63-5.93,2.63-11.19,0-4.12-.52-7.13-1.56-9.05-1.04-1.92-2.8-3.14-5.28-3.67-2.48-.53-5.89-.79-10.23-.79H17.85v29.34ZM17.85,559.06h51.82c5,0,9.13-.14,12.39-.43,3.26-.29,5.84-.98,7.72-2.08,1.88-1.1,3.2-2.85,3.97-5.22.77-2.39,1.15-5.68,1.15-9.88s-.72-7.68-2.16-10.09c-1.44-2.4-3.45-4.14-6.02-5.2-2.57-1.06-5.55-1.71-8.95-1.96-3.39-.24-7.04-.37-10.94-.37H17.85v35.21Z"/>
        <path class="cls-1" d="M69.67,572.32H4.23v-100.85h70.09c6.6,0,12.14.71,16.49,2.12,4.8,1.58,8.42,4.43,10.78,8.49,2.27,3.91,3.43,9.35,3.43,16.16,0,6.25-1.35,11.55-4.02,15.76-.88,1.4-1.92,2.6-3.08,3.61,2.4,1.45,4.38,3.38,5.92,5.77,3.11,4.84,4.69,10.92,4.69,18.07,0,5.96-.64,10.98-1.91,14.93-1.38,4.3-3.73,7.69-7,10.08-3.06,2.24-7.17,3.81-12.21,4.65-4.75.8-10.71,1.2-17.73,1.2ZM10.46,565.36h59.21c6.71,0,12.36-.38,16.8-1.12,4.15-.7,7.42-1.91,9.73-3.59,2.13-1.57,3.62-3.73,4.55-6.62,1.02-3.19,1.54-7.42,1.54-12.58,0-5.66-1.19-10.38-3.52-14.01-2.21-3.44-5.87-5.41-11.19-6l.09-6.72c-1.85,1.11-4.06,1.82-6.61,2.14-3.71.46-8.5.69-14.24.69H14.74v-36.3h59.58c4.58,0,8.12.28,10.82.86,3.37.72,5.85,2.5,7.36,5.28,1.35,2.49,2.01,6.04,2.01,10.85,0,6.19-1.12,10.61-3.41,13.5-.85,1.08-1.87,2-3.04,2.74,3.6-.36,6.17-1.83,7.86-4.5,1.91-3.01,2.88-6.96,2.88-11.74,0-5.45-.81-9.61-2.43-12.37-1.54-2.66-3.93-4.49-7.29-5.6-3.77-1.22-8.74-1.84-14.75-1.84H10.46v86.94ZM20.96,510.59h45.86c5.51,0,10.07-.22,13.56-.65,2.81-.35,4.85-1.3,6.06-2.83.84-1.05,1.84-3.45,1.84-8.88,0-4.52-.69-6.48-1.11-7.25-.21-.38-.84-1.55-3.2-2.05-2.28-.49-5.52-.73-9.65-.73H20.96v22.39ZM69.67,562.54H14.74v-42.16h52.09c3.98,0,7.69.12,11.14.37,3.68.26,6.98.99,9.82,2.17,3.19,1.31,5.72,3.5,7.53,6.52,1.78,2.97,2.69,7.02,2.69,12.02,0,4.64-.43,8.25-1.33,11.05-1.04,3.22-2.87,5.62-5.45,7.12-2.28,1.34-5.19,2.15-8.92,2.47-3.33.29-7.58.44-12.64.44ZM20.96,555.58h48.71c4.89,0,8.98-.14,12.15-.41,2.83-.25,5.02-.82,6.51-1.69,1.19-.7,1.98-1.75,2.48-3.32.64-2,.96-4.93.96-8.7s-.55-6.34-1.64-8.15c-1.08-1.8-2.55-3.06-4.51-3.87-2.28-.94-4.99-1.52-8.07-1.75-3.33-.24-6.91-.36-10.74-.36H20.96v28.25Z"/>
      </g>
      <g>
        <path class="cls-1" d="M170.09,568.84v-39.12l-48.65-54.77h14.41l39.64,45.97,39.64-45.97h14.41l-48.65,54.77v39.12h-10.81Z"/>
        <path class="cls-1" d="M184.1,572.32h-17.22v-41.19l-52.99-59.65h23.34l38.25,44.36,38.25-44.36h23.34l-52.99,59.65v41.19ZM173.29,565.36h4.4v-37.05l44.31-49.89h-5.49l-41.03,47.58-41.03-47.58h-5.49l44.31,49.89v37.05Z"/>
      </g>
      <g>
        <path class="cls-1" d="M245.7,569.72v-9.87l78.34-75h-74.97v-9.87h89.41v9.87l-78.76,75h80.45v9.87h-94.47Z"/>
        <path class="cls-1" d="M343.17,573.23h-100.47v-15.04l72.94-69.83h-69.56v-16.89h95.41v15.04l-73.33,69.83h75.01v16.89ZM248.7,566.21h88.47v-2.85h-85.88l84.2-80.18v-4.69h-83.41v2.85h80.37l-83.74,80.18v4.69Z"/>
      </g>
      <g>
        <path class="cls-1" d="M405.6,570.32c-8.75,0-15.94-.62-21.57-1.85-5.64-1.24-10.04-3.52-13.21-6.84-3.17-3.32-5.38-8.1-6.65-14.34-1.26-6.24-1.89-14.36-1.89-24.36v-2.43c0-8.26.39-15.19,1.17-20.8.78-5.61,2.12-10.18,4.02-13.7,1.9-3.52,4.5-6.22,7.78-8.08,3.28-1.86,7.42-3.13,12.39-3.8,4.98-.66,10.96-1,17.96-1h23.5c7,0,12.98.34,17.96,1,4.98.67,9.1,1.94,12.39,3.8,3.28,1.86,5.88,4.56,7.79,8.08,1.9,3.52,3.25,8.09,4.02,13.7.78,5.61,1.17,12.54,1.17,20.8v2.43c0,10-.63,18.12-1.9,24.36-1.26,6.24-3.48,11.02-6.65,14.34-3.17,3.32-7.57,5.6-13.2,6.84-5.64,1.23-12.83,1.85-21.57,1.85h-23.5ZM405.6,560.24h23.5c5.56,0,10.24-.2,14.05-.61,3.81-.4,6.91-1.28,9.3-2.61,2.4-1.34,4.22-3.36,5.48-6.07s2.13-6.34,2.6-10.87c.47-4.54.7-10.25.7-17.13v-2.43c0-7.13-.23-13-.7-17.62-.47-4.62-1.33-8.26-2.6-10.93-1.26-2.67-3.08-4.62-5.48-5.86-2.38-1.24-5.49-2.02-9.3-2.38-3.81-.34-8.49-.51-14.05-.51h-23.5c-5.56,0-10.24.18-14.05.51-3.81.35-6.91,1.14-9.3,2.38-2.38,1.24-4.22,3.19-5.48,5.86-1.26,2.67-2.13,6.32-2.59,10.93-.47,4.62-.7,10.49-.7,17.62v2.43c0,6.88.23,12.6.7,17.13.47,4.54,1.33,8.16,2.59,10.87s3.1,4.74,5.48,6.07c2.4,1.34,5.49,2.21,9.3,2.61,3.81.4,8.49.61,14.05.61Z"/>
        <path class="cls-1" d="M429.1,573.78h-23.5c-8.91,0-16.4-.65-22.25-1.92-6.26-1.37-11.26-3.99-14.88-7.78-3.62-3.79-6.15-9.19-7.54-16.06-1.3-6.43-1.96-14.87-1.96-25.08v-2.43c0-8.38.4-15.55,1.2-21.3.84-6.01,2.32-11.02,4.42-14.9,2.21-4.08,5.26-7.26,9.08-9.42,3.62-2.05,8.18-3.46,13.55-4.19,5.13-.68,11.32-1.03,18.39-1.03h23.5c7.07,0,13.26.34,18.38,1.03,5.38.73,9.93,2.14,13.55,4.19,3.83,2.17,6.89,5.34,9.09,9.42,2.1,3.88,3.58,8.89,4.42,14.9.8,5.74,1.2,12.91,1.2,21.3v2.43c0,10.19-.66,18.62-1.97,25.08-1.39,6.87-3.93,12.27-7.54,16.06-3.62,3.79-8.62,6.41-14.88,7.78-5.86,1.28-13.34,1.92-22.25,1.92ZM405.6,476.58c-6.79,0-12.69.32-17.54.97-4.55.61-8.33,1.76-11.23,3.41-2.75,1.56-4.87,3.76-6.48,6.74-1.69,3.13-2.92,7.34-3.63,12.5-.75,5.42-1.13,12.25-1.13,20.31v2.43c0,9.73.62,17.68,1.82,23.64,1.12,5.55,3.06,9.79,5.75,12.62,2.7,2.82,6.58,4.81,11.54,5.89,5.41,1.17,12.44,1.78,20.89,1.78h23.5c8.45,0,15.48-.6,20.89-1.78,4.96-1.09,8.84-3.07,11.53-5.89,2.7-2.82,4.63-7.07,5.75-12.62,1.21-5.98,1.83-13.94,1.83-23.64v-2.43c0-8.06-.38-14.89-1.13-20.31-.71-5.16-1.94-9.37-3.63-12.5-1.61-2.97-3.73-5.18-6.49-6.74-2.9-1.65-6.67-2.79-11.23-3.41-4.84-.65-10.74-.97-17.53-.97h-23.5ZM429.1,563.69h-23.5c-5.64,0-10.49-.21-14.39-.63-4.28-.45-7.72-1.44-10.53-3-3.01-1.69-5.33-4.25-6.9-7.61-1.44-3.09-2.39-7.03-2.9-12.01-.48-4.64-.72-10.53-.72-17.5v-2.43c0-7.22.24-13.26.72-17.98.51-5.08,1.46-9.03,2.92-12.1,1.58-3.35,3.93-5.85,6.98-7.42,2.8-1.44,6.23-2.34,10.49-2.73,3.95-.35,8.77-.53,14.34-.53h23.5c5.58,0,10.4.18,14.33.53,4.29.39,7.72,1.28,10.5,2.73,3.04,1.57,5.39,4.06,6.98,7.42,1.46,3.07,2.41,7.03,2.92,12.1.48,4.72.72,10.77.72,17.98v2.43c0,6.97-.24,12.87-.72,17.5-.51,4.97-1.46,8.9-2.91,12.01-1.57,3.38-3.89,5.94-6.9,7.61-2.75,1.55-6.3,2.56-10.53,3-3.9.42-8.75.63-14.39.63ZM407.47,489.62c-4.75,0-8.83.16-12.14.47-2.97.29-5.38.93-7.15,1.91-1.53.84-2.68,2.16-3.51,4.03-.95,2.15-1.62,5.24-2,9.18-.4,4.2-.6,9.66-.6,16.2v2.28c0,6.32.2,11.62.6,15.74.38,3.87,1.05,6.95,2.01,9.15.84,1.93,2.02,3.32,3.59,4.26,1.76,1.05,4.15,1.75,7.11,2.09,3.24.37,7.31.55,12.09.55h20.71c4.78,0,8.84-.18,12.09-.55,2.96-.34,5.36-1.04,7.1-2.09,1.57-.93,2.74-2.33,3.59-4.26.96-2.21,1.64-5.28,2.02-9.15.4-4.12.6-9.42.6-15.74v-2.28c0-6.55-.2-12-.6-16.2-.37-3.93-1.05-7.02-2-9.18-.83-1.87-1.98-3.19-3.51-4.03-1.76-.98-4.17-1.62-7.15-1.91-3.29-.31-7.38-.47-12.13-.47h-20.71Z"/>
      </g>
      <g>
        <path class="cls-1" d="M498.77,569.14v-93.44h9.73l75.06,79.02h.1v-79.02h9.34v93.44h-9.73l-75.06-79.69h-.1v79.69h-9.34Z"/>
        <path class="cls-1" d="M595.77,572.14h-13.51l-66.57-75.6v75.78l-19.69-.18v-100.36h13.51l68.23,71.83-.54,3.32v-75.15h18.57v100.36ZM584.29,565.22h5.95v-86.52h-3.81v79.02h-3.78l-.87-.81-74.29-78.21h-5.95v86.52h3.81v-79.69h3.78l.87.82,74.29,78.87Z"/>
        <polyline class="cls-1" points="508.39 471.78 521.29 471.78 575.43 541.18"/>
        <polyline class="cls-1" points="581.67 571.48 573.97 571.48 519.3 500.65"/>
      </g>
    </g>
    <path class="cls-2" d="M156.19,7.45l-.04,1.79c-8.99,10.13-25.4,31.65-30.57,62.99-1.55,9.4-4.56,29.05,3.03,51.25,6.29,18.41,16.81,29.95,24.02,37.73,15.24,16.43,31.92,26.22,62.05,43.9,0,0,20.73,12.16,35.12,27.29,3.44,3.61,6.64,7.59,6.64,7.59,5.11,6.18,8.52,11.15,9.49,12.58,0,0,3.98,5.86,7.83,12.81,5.3,9.59,15.36,33.23,26.22,65.49,3.31-16.49,10.34-40.92,26.46-66.68,11.16-17.83,23.42-31.11,33.54-40.47,7.44-6.29,19.3-15.69,35.04-25.49,18.43-11.48,22.45-11.24,34.64-20.41,7.91-5.95,23.6-18.18,35.09-39.88,9.8-18.51,11.73-35.26,11.78-39.73.11-11.03-1-27.23-7-45.68-6.79-20.88-17.03-35.96-24.32-45.08,10.36,7.34,23.38,18.16,35.95,33.46,10.03,12.2,17.1,24.01,22.07,33.81,5.47,10.9,13.63,30.62,14.95,56.59,1.27,25.07-4.38,44.91-8.54,56.24-7.59,12.68-18.05,27.67-32.27,42.95-18.22,19.58-36.66,33.23-51.37,42.47-14.54,9.54-31.76,22.6-49.24,40.1-19.18,19.21-33.09,38.2-42.95,53.86-11.27,21-22.54,42-33.81,63-11.27-24.38-26.47-51.85-47.1-80.08-8.85-12.12-17.8-23.13-26.58-33.1-1.88-1.78-4.66-4.39-8.07-7.47-9.78-8.84-17.74-15.3-23.25-19.69-23.55-18.8-37.44-28.27-48.07-37.09-1.17-.97-6.84-5.67-14.67-11.89-.85-.67-1.67-1.32-2.74-2.15-9.46-7.38-29.2-24.92-40.22-54.63-7.38-19.9-7.99-37.58-7.47-48.58,0-8.69.86-21.09,4.98-35.24,1.23-4.24,5.86-19.28,20.29-40.57,9.14-13.49,24.58-32.96,49.12-51.96Z"/>
  </g>
</svg>