<?xml version="1.0" encoding="UTF-8"?>
<svg xmlns="http://www.w3.org/2000/svg" viewBox="0 0 159.44 159.44">
  <defs>
    <style>
      .cls-1 {
        fill: #0c2f4b;
      }

      .cls-2 {
        fill: #164364;
        isolation: isolate;
      }
    </style>
  </defs>
  <g id="metn">
    <g id="Byzon">
      <g>
        <path class="cls-1" d="M34.12,115.68v-14.66h10.45c.99,0,1.8.1,2.44.31.63.21,1.1.57,1.41,1.1.3.52.46,1.27.46,2.23,0,.87-.18,1.58-.54,2.15s-.91.88-1.65.94c.97.11,1.67.5,2.09,1.16s.64,1.5.64,2.5c0,.87-.09,1.59-.27,2.15s-.48.99-.9,1.3-.99.52-1.71.64-1.62.18-2.69.18h-9.73ZM35.76,107.13h7.64c.88,0,1.61-.03,2.17-.1s.98-.28,1.26-.62.41-.93.41-1.75c0-.64-.08-1.11-.24-1.41s-.44-.49-.82-.57-.92-.12-1.6-.12h-8.81v4.58ZM35.76,114.15h8.09c.78,0,1.42-.02,1.93-.07s.91-.15,1.2-.32.5-.44.62-.82c.12-.37.18-.89.18-1.54s-.11-1.2-.34-1.57-.54-.65-.94-.81-.87-.27-1.4-.31-1.1-.06-1.71-.06h-7.64v5.5Z"/>
        <path class="cls-1" d="M43.85,116.22h-10.21v-15.74h10.94c1.03,0,1.9.11,2.57.33.75.25,1.31.69,1.68,1.33.35.61.53,1.46.53,2.52,0,.98-.21,1.8-.63,2.46-.14.22-.3.41-.48.56.37.23.68.53.92.9.49.76.73,1.7.73,2.82,0,.93-.1,1.71-.3,2.33-.21.67-.58,1.2-1.09,1.57-.48.35-1.12.59-1.91.73-.74.13-1.67.19-2.77.19ZM34.61,115.13h9.24c1.05,0,1.93-.06,2.62-.17.65-.11,1.16-.3,1.52-.56.33-.24.57-.58.71-1.03.16-.5.24-1.16.24-1.96,0-.88-.19-1.62-.55-2.19-.34-.54-.92-.84-1.75-.94v-1.05c-.27.17-.62.28-1.02.33-.58.07-1.33.11-2.22.11h-8.13v-5.67h9.3c.72,0,1.27.04,1.69.13.53.11.91.39,1.15.82.21.39.31.94.31,1.69,0,.97-.17,1.66-.53,2.11-.13.17-.29.31-.47.43.56-.06.96-.29,1.23-.7.3-.47.45-1.09.45-1.83,0-.85-.13-1.5-.38-1.93-.24-.42-.61-.7-1.14-.87-.59-.19-1.36-.29-2.3-.29h-9.97v13.57ZM36.25,106.58h7.16c.86,0,1.57-.03,2.12-.1.44-.05.76-.2.95-.44.13-.16.29-.54.29-1.39,0-.71-.11-1.01-.17-1.13-.03-.06-.13-.24-.5-.32-.36-.08-.86-.11-1.51-.11h-8.33v3.49ZM43.85,114.69h-8.57v-6.58h8.13c.62,0,1.2.02,1.74.06.57.04,1.09.15,1.53.34.5.2.89.55,1.18,1.02.28.46.42,1.1.42,1.88,0,.72-.07,1.29-.21,1.72-.16.5-.45.88-.85,1.11-.36.21-.81.34-1.39.38-.52.05-1.18.07-1.97.07ZM36.25,113.61h7.6c.76,0,1.4-.02,1.9-.06.44-.04.78-.13,1.02-.26.19-.11.31-.27.39-.52.1-.31.15-.77.15-1.36s-.09-.99-.26-1.27c-.17-.28-.4-.48-.7-.6-.36-.15-.78-.24-1.26-.27-.52-.04-1.08-.06-1.68-.06h-7.16v4.41Z"/>
      </g>
      <g>
        <path class="cls-1" d="M59.53,115.68v-6.11l-7.59-8.55h2.25l6.19,7.18,6.19-7.18h2.25l-7.59,8.55v6.11h-1.69Z"/>
        <path class="cls-1" d="M61.72,116.22h-2.69v-6.43l-8.27-9.31h3.64l5.97,6.92,5.97-6.92h3.64l-8.27,9.31v6.43ZM60.03,115.13h.69v-5.78l6.92-7.79h-.86l-6.4,7.43-6.4-7.43h-.86l6.92,7.79v5.78Z"/>
      </g>
      <g>
        <path class="cls-1" d="M71.33,115.81v-1.54l12.23-11.71h-11.7v-1.54h13.96v1.54l-12.29,11.71h12.56v1.54h-14.75Z"/>
        <path class="cls-1" d="M86.54,116.36h-15.68v-2.35l11.39-10.9h-10.86v-2.64h14.89v2.35l-11.45,10.9h11.71v2.64ZM71.8,115.27h13.81v-.45h-13.41l13.14-12.52v-.73h-13.02v.45h12.54l-13.07,12.52v.73Z"/>
      </g>
      <g>
        <path class="cls-1" d="M96.29,115.91c-1.37,0-2.49-.1-3.37-.29-.88-.19-1.57-.55-2.06-1.07s-.84-1.26-1.04-2.24-.3-2.24-.3-3.8v-.38c0-1.29.06-2.37.18-3.25s.33-1.59.63-2.14.7-.97,1.21-1.26,1.16-.49,1.93-.59c.78-.1,1.71-.16,2.8-.16h3.67c1.09,0,2.03.05,2.8.16.78.11,1.42.3,1.93.59s.92.71,1.22,1.26.51,1.26.63,2.14.18,1.96.18,3.25v.38c0,1.56-.1,2.83-.3,3.8s-.54,1.72-1.04,2.24-1.18.87-2.06,1.07c-.88.19-2,.29-3.37.29h-3.67ZM96.29,114.33h3.67c.87,0,1.6-.03,2.19-.09s1.08-.2,1.45-.41c.37-.21.66-.52.86-.95s.33-.99.41-1.7.11-1.6.11-2.67v-.38c0-1.11-.04-2.03-.11-2.75s-.21-1.29-.41-1.71-.48-.72-.86-.91c-.37-.19-.86-.32-1.45-.37-.59-.05-1.33-.08-2.19-.08h-3.67c-.87,0-1.6.03-2.19.08-.59.05-1.08.18-1.45.37-.37.19-.66.5-.86.91s-.33.99-.4,1.71-.11,1.64-.11,2.75v.38c0,1.07.04,1.97.11,2.67s.21,1.27.4,1.7.48.74.86.95c.37.21.86.34,1.45.41s1.33.09,2.19.09Z"/>
        <path class="cls-1" d="M99.96,116.45h-3.67c-1.39,0-2.56-.1-3.47-.3-.98-.21-1.76-.62-2.32-1.21-.56-.59-.96-1.43-1.18-2.51-.2-1-.31-2.32-.31-3.91v-.38c0-1.31.06-2.43.19-3.32.13-.94.36-1.72.69-2.33.34-.64.82-1.13,1.42-1.47.57-.32,1.28-.54,2.12-.65.8-.11,1.77-.16,2.87-.16h3.67c1.1,0,2.07.05,2.87.16.84.11,1.55.33,2.12.65.6.34,1.07.83,1.42,1.47.33.61.56,1.39.69,2.33.12.9.19,2.02.19,3.32v.38c0,1.59-.1,2.91-.31,3.91-.22,1.07-.61,1.92-1.18,2.51-.57.59-1.35,1-2.32,1.21-.91.2-2.08.3-3.47.3ZM96.29,101.27c-1.06,0-1.98.05-2.74.15-.71.1-1.3.27-1.75.53-.43.24-.76.59-1.01,1.05-.26.49-.46,1.15-.57,1.95-.12.85-.18,1.91-.18,3.17v.38c0,1.52.1,2.76.28,3.69.17.87.48,1.53.9,1.97s1.03.75,1.8.92c.84.18,1.94.28,3.26.28h3.67c1.32,0,2.42-.09,3.26-.28.77-.17,1.38-.48,1.8-.92s.72-1.1.9-1.97c.19-.93.29-2.18.29-3.69v-.38c0-1.26-.06-2.32-.18-3.17-.11-.81-.3-1.46-.57-1.95-.25-.46-.58-.81-1.01-1.05-.45-.26-1.04-.44-1.75-.53-.76-.1-1.68-.15-2.74-.15h-3.67ZM99.96,114.87h-3.67c-.88,0-1.64-.03-2.25-.1-.67-.07-1.21-.22-1.64-.47-.47-.26-.83-.66-1.08-1.19-.22-.48-.37-1.1-.45-1.87-.07-.72-.11-1.64-.11-2.73v-.38c0-1.13.04-2.07.11-2.81.08-.79.23-1.41.46-1.89.25-.52.61-.91,1.09-1.16.44-.23.97-.36,1.64-.43.62-.05,1.37-.08,2.24-.08h3.67c.87,0,1.62.03,2.24.08.67.06,1.2.2,1.64.43.47.24.84.63,1.09,1.16.23.48.38,1.1.46,1.89.07.74.11,1.68.11,2.81v.38c0,1.09-.04,2.01-.11,2.73-.08.78-.23,1.39-.45,1.87-.25.53-.61.93-1.08,1.19-.43.24-.98.4-1.64.47-.61.07-1.37.1-2.25.1ZM96.58,103.31c-.74,0-1.38.02-1.89.07-.46.05-.84.15-1.12.3-.24.13-.42.34-.55.63-.15.34-.25.82-.31,1.43-.06.66-.09,1.51-.09,2.53v.36c0,.99.03,1.81.09,2.46.06.6.16,1.09.31,1.43.13.3.31.52.56.66.27.16.65.27,1.11.33.51.06,1.14.09,1.89.09h3.23c.75,0,1.38-.03,1.89-.09.46-.05.84-.16,1.11-.33.25-.15.43-.36.56-.66.15-.34.26-.82.31-1.43.06-.64.09-1.47.09-2.46v-.36c0-1.02-.03-1.87-.09-2.53-.06-.61-.16-1.1-.31-1.43-.13-.29-.31-.5-.55-.63-.28-.15-.65-.25-1.12-.3-.51-.05-1.15-.07-1.89-.07h-3.23Z"/>
      </g>
      <g>
        <path class="cls-1" d="M110.83,115.72v-14.58h1.52l11.72,12.33h.02v-12.33h1.46v14.58h-1.52l-11.72-12.44h-.02v12.44h-1.46Z"/>
        <path class="cls-1" d="M125.97,116.19h-2.11l-10.39-11.8v11.83l-3.07-.03v-15.67h2.11l10.65,11.21-.08.52v-11.73h2.9v15.67ZM124.18,115.11h.93v-13.5h-.59v12.33h-.59l-.14-.13-11.6-12.21h-.93v13.5h.59v-12.44h.59l.14.13,11.6,12.31Z"/>
        <polyline class="cls-1" points="112.33 100.53 114.35 100.53 122.8 111.36"/>
        <polyline class="cls-1" points="123.77 116.09 122.57 116.09 114.04 105.03"/>
      </g>
    </g>
  </g>
  <g id="icon">
    <path class="cls-2" d="M57.28,27.39v.28c-1.41,1.58-3.97,4.94-4.78,9.83-.24,1.47-.71,4.53.47,8,.98,2.87,2.62,4.68,3.75,5.89,2.38,2.57,4.98,4.09,9.69,6.85,0,0,3.24,1.9,5.48,4.26.54.56,1.04,1.19,1.04,1.19.8.96,1.33,1.74,1.48,1.96,0,0,.62.91,1.22,2,.83,1.5,2.4,5.19,4.09,10.22.52-2.57,1.61-6.39,4.13-10.41,1.74-2.78,3.66-4.86,5.23-6.32,1.16-.98,3.01-2.45,5.47-3.98,2.88-1.79,3.5-1.75,5.41-3.19,1.23-.93,3.68-2.84,5.48-6.22,1.53-2.89,1.83-5.5,1.84-6.2.02-1.72-.16-4.25-1.09-7.13-1.06-3.26-2.66-5.61-3.8-7.04,1.62,1.15,3.65,2.83,5.61,5.22,1.56,1.9,2.67,3.75,3.44,5.28.85,1.7,2.13,4.78,2.33,8.83.2,3.91-.68,7.01-1.33,8.78-1.19,1.98-2.82,4.32-5.04,6.7-2.84,3.06-5.72,5.19-8.02,6.63-2.27,1.49-4.96,3.53-7.69,6.26-2.99,3-5.16,5.96-6.7,8.41-1.76,3.28-3.52,6.56-5.28,9.83-1.76-3.81-4.13-8.09-7.35-12.5-1.38-1.89-2.78-3.61-4.15-5.17-.29-.28-.73-.68-1.26-1.17-1.53-1.38-2.77-2.39-3.63-3.07-3.68-2.93-5.84-4.41-7.5-5.79-.18-.15-1.07-.89-2.29-1.86-.13-.1-.26-.21-.43-.34-1.48-1.15-4.56-3.89-6.28-8.53-1.15-3.11-1.25-5.87-1.17-7.58,0-1.36.13-3.29.78-5.5.19-.66.91-3.01,3.17-6.33,1.43-2.11,3.84-5.15,7.67-8.11Z"/>
  </g>
</svg>