<?xml version="1.0" encoding="UTF-8"?>
<svg id="S" xmlns="http://www.w3.org/2000/svg" viewBox="0 0 527.39 262.83">
  <defs>
    <style>
      .cls-1 {
        fill: none;
      }

      .cls-2 {
        fill: #3072a4;
      }
    </style>
  </defs>
  <g>
    <path class="cls-2" d="M375.49,120.17c-.34.89-.79,1.71-1.86,2.06-.58,1.07-.74,2.21-.66,3.41l-1.21,1.73c.16,2.62-2.13,2.28-5.63,4.22-3.42,1.88-2.7,3.73-4.04,4.18-.28.1-.7-.15-1.09-.24-1.68-.44-2.71-3.74-1.47-5.75l-.86-2.96c-.21-.72-.89-1.2-1.64-1.28l-1.59-.17c-.52-.06-.96-.16-1.05-.65-.25-1.23,2.39-1.38,2.14-3.56l18.97-.99Z"/>
    <path class="cls-2" d="M397.25,131.27l-7.34,5.14-4.47,3.13s-.01-.01-.02-.02c-.58-.58-1.15-1.2-1.59-1.89-.31-.48-.96-.44-1.45-.84-.79-.65-.7-2.2.18-2.75,3.34-2.09,4.96-6.94,10.13-4.14l3.13.6,1.43.78Z"/>
    <path class="cls-2" d="M350.54,135.28l.17.27s-.11.03-.17.03v.03l-.06-.04c-.51.23-.98-.3-1.57-.25-.82.06-1.26,1.24-1.23,1.98.05,1.37-.35,2.2-1.24,3.23-.32.37-.11,1.31-1.04,1.23-.51-2.81-3.85-2-4.1-3.75-.11-.7.28-1.26.88-1.7l1.77-1.28c-.54-.28.19-1.04.32-.34l1.47-.9c3.17-.73,1.41-3.29,3.72-3.1.46.04,1.35.45,1.29,1.06-.12,1.24-.21,2.39-.19,3.54Z"/>
    <path class="cls-2" d="M403.58,161.91l-3.49,2.45h-.01l-.36.27.22-.33.03-.04.92-1.34c.44-.12.89-.27,1.35-.45.2-.07.4-.15.61-.23.24-.11.49-.21.72-.33Z"/>
    <path class="cls-2" d="M406.57,159.8c-.05.07-.12.15-.19.22-.03.03-.06.07-.1.11-.07.07-.16.15-.24.22-.63.55-1.49,1.09-2.43,1.54l2.96-2.09Z"/>
    <path class="cls-2" d="M406.99,159.01c.08-.35.03-.69-.21-1.01l-.13-.17c-.25-.33-.64-.65-.67-1.16l1.35.12.18.02.18.03c.99.14,2.15.37,3.07,0l-4.19,2.95s.01-.01.01-.02c.07-.09.13-.16.17-.24.05-.07.1-.16.14-.23.04-.1.07-.19.1-.29Z"/>
    <line class="cls-1" x1="397.51" y1="159.18" x2="399.09" y2="162.15"/>
    <path class="cls-2" d="M382.77,139.69s-.01.03-.04.04l.34-.85c0,.09-.01.17-.03.24-.01.05-.02.11-.04.15-.03.13-.1.24-.18.35,0,.02-.02.04-.04.06Z"/>
    <path class="cls-2" d="M383.06,138.86c0-.13-.01-.25-.04-.4.14-.02.21-.08.27-.15l-.22.55Z"/>
    <path class="cls-2" d="M395.23,153.01c-1.66.62-3.37.06-4.89-.36-.93-.25-1.47.27-2.07.66-.73.47-1.52-.55-2.11-.71-2.49-.67-1.04-2.79-3.01-2.55l-1.99.25c-.96.13-1.76.25-2.69.05l-.69-.15-.2-.06-2.03-.56c-.25-.99-.49-2.43.14-3.34.53-.76,2.7.12,3.1-.74s-1.04-1.62-.92-2.15c.03-.17.25-.52.51-.57,1.42-.25,2.19-1.18,3.23-2.08.1-.09.19-.16.3-.23.3-.23.61-.46.81-.72l-4.07,10.23c1.11-.91,1.41-3.36,4.2-3.71l.21-.07c1.38-.47,1.66,1.07,2.84,1.91l1.06-1.23c2.04-.06,1.73,2.67,2.75,2.6.92-.06.5-1.8,1.37-1.62.34.07.83.27.83.71,0,2.31,2.6,1.53,3.73,2.06.61.28.3,2.13-.4,2.38Z"/>
    <path class="cls-2" d="M400.1,164.36l-.37.27c-.07-.08-.05-.33.09-.37.04-.01.1.01.14.04.05.02.11.05.14.06h.01Z"/>
    <path class="cls-2" d="M399.57,161.56c.46.89.08,1.99.11,2.88-1.31-1.63-2.06-3.42-3.02-5.21l.26-1.45c.42.33.89.38,1.08.74l1.57,3.03Z"/>
    <path class="cls-2" d="M363.97,175.1c-1.94,2.05-.55,5.17-2.4,6.4-.67.44-2.21.62-2.45,1.54-.53,1.99-1.12,3.77-2.7,5.22-.4.36-.58,1.39-1.15,1.59-1.9.7-2.45,3-2.16,5.08l-.18,2.51-.1,1.31c0,.11-.07.18-.14.21-.19.09-3.05-1.35-3.29-4.87l-.89-4.75c.07-2.06.17-4.03-.07-6.12-.16-1.36.2-2.75-.8-4-.57-.7-1.94-.91-2.43-1.74l-2.62-4.4c-.87-1.45.21-3.47,1.06-4.65.41-.58.19-1.13.05-1.53-.21-.65-.92-.57-1.5-.64-1.56-.16-2.11-1.69-3.24-2.49-.71-.5-1.93-1.33-2.69-1.47-1.46-.28-2.56-.32-3.84-1.2-.66-.47-1.36-.84-1.33-1.85.05-1.24-.79-2.03-1.76-2.55l-1.69-.92c-.71-.34-.8-1.48-2-1.56l11.48-21.96c.41.2.89,1.06,1.5.95l3.35-.65c1.06-.21.9-2.03,1.69-2.37.73-.31,1.22,1.45,1.97,1.16.87-.34-.13-1.67.47-2.67.42-.69,1.06-.53,1.84-.58,5.26-.39,5.88,2.74,6.75,2.98.39.11.72.78.63,1.16-.07.32-.51.74-.88.9-.76.33-.76.81-1.09,1.38-.5.87-1.86.75-2.62,1.03l-.17-.27c-.02-1.15.07-2.3.19-3.54.06-.62-.83-1.02-1.29-1.06-2.31-.19-.55,2.37-3.72,3.1l-1.47.9c-.13-.7-.86.06-.32.34l-1.77,1.28c-.61.44-.99,1-.88,1.7.25,1.75,3.59.95,4.1,3.75.94.07.72-.86,1.04-1.23.89-1.03,1.3-1.86,1.24-3.23-.03-.73.41-1.91,1.23-1.98.6-.04,1.06.49,1.57.25l.06.04s.01.09.01.12l.57.61c.3.65.9.86,1.55.51,1.56-.82.82,1.99,3.17,3.01l.73,2.61c.13.44.64,1.3.15,1.67-1.38,1.03-2.64-1.19-3.55-1.2-.37,0-1.16.01-1.15.71.01.63.81.92.97,1.6-.58.83-1.79,1.34-2.69.65-.89.2-1.42.86-1.72,1.68-1.82.68-2.38,2.25-3.17,3.77-.49.94-2.04,1.19-2.26,2.4l.19,2.33c.04.41-.54.74-.86.68-.78-.13-.37-1.65-1.57-2.37-.56-.34-1.2-.03-1.92.12-1.09.21-2.26.15-3.13,1.04-.96.98-1.08,3.9.1,4.47,1.48.72,2.26-1.77,3.55-1.13.87.45-.85,2.66.89,2.67,1.91.01.23,3.18,2.39,3.25.58.02,1.18.14,1.79-.04,1.96-2.14,3.17-.76,6.52-.35.93.12,1.53,1.09,2.19,1.68.92.82,2.96.24,3.58,2.27.3.98.82,1.56,1.74,1.88l3.97,1.36c.75.27,1.59.57,1.82,1.41.15.56.12,1.52-.42,2.08Z"/>
    <path class="cls-2" d="M411,156.64s0-.03-.01-.05v-.05s.01.07.01.11Z"/>
    <path class="cls-2" d="M410.98,156.55h0c-.25-1.81-.62-3.58-1.08-5.32-.31-1.15-.67-2.3-1.06-3.41-2.03-5.65-5.22-10.85-9.46-15.24-.42-.44-.86-.87-1.31-1.3l-.24-.24-1.75-1.57-.16-.14c-.34.33-.3.79-.1,1.17l-3.13-.6c-5.16-2.79-6.79,2.05-10.13,4.14-.88.55-.97,2.1-.18,2.75.49.4,1.14.36,1.45.84l-.41.38-.02.04v.03s-.02.02-.02.02h0s-.01.03-.01.03v.02s-.02.06-.04.1h0s-.01.02-.01.03h-.01c-.05.07-.13.14-.27.16.03.15.04.28.04.4v.02l-.34.85s-.01.01-.01.01c-.2.27-.51.49-.81.72-.11.07-.2.15-.3.23-1.04.9-1.81,1.83-3.23,2.08-.26.05-.48.4-.51.57-.12.53,1.33,1.29.92,2.15s-2.57-.02-3.1.74c-.63.9-.39,2.35-.14,3.34l2.03.56c-.13.22-.3.45-.34.69l22.48,13.79.36-.27h.01l3.49-2.45h.02c.95-.46,1.81-1,2.43-1.55.09-.07.17-.15.24-.22.03-.03.06-.07.1-.11.07-.07.14-.15.19-.22h.01s4.19-2.96,4.19-2.96c.05-.03.14-.05.19-.21h0s.03-.04.03-.04c0-.01,0-.02-.01-.03ZM402.22,176.26l-2.26,2.26c-.39.57-1.47,4.17-.28,4.69.44.2,1.2-.03,1.48-.69l1.66-4.05c.29-.72.33-2.23-.6-2.21ZM375.85,119.86l-.34-.06c-6.21-1.13-12.57-.78-18.8.81l-.19.55c.25,2.18-2.39,2.33-2.14,3.56.1.49.53.58,1.05.65l1.59.17c.74.07,1.42.55,1.64,1.28l.86,2.96c-1.24,2.01-.21,5.31,1.47,5.75.39.1.82.34,1.09.24,1.34-.45.62-2.3,4.04-4.18,3.51-1.93,5.79-1.59,5.63-4.22l1.21-1.73c-.09-1.2.07-2.34.66-3.41,1.07-.35,1.52-1.17,1.86-2.06.17.01.18-.2.36-.31ZM352.93,197.44l-.1,1.31c.05.21.23.4.32.13.07-.22.04-.3.48-.18.3.09.38-.57.22-.8-.19-.25-.6-.56-.92-.46ZM349.45,130.68c-2.31-.19-.55,2.37-3.72,3.1l-1.47.9c-.13-.7-.86.06-.32.34l-1.77,1.28c-.61.44-.99,1-.88,1.7.25,1.75,3.59.95,4.1,3.75.94.07.72-.86,1.04-1.23.89-1.03,1.3-1.86,1.24-3.23-.03-.73.41-1.91,1.23-1.98.6-.04,1.06.49,1.57.25l.06.04s.01.09.01.12l.16-.18-.17-.27c-.02-1.15.07-2.3.19-3.54.06-.62-.83-1.02-1.29-1.06ZM325.32,153.93l.34.3,11.48-21.96-.1-.25c-6.02,6.1-10.07,13.72-11.72,21.92ZM327.53,156.33c.02.07.73.83.64.83.15,0,.52-.12.64-.06.43.17.54-.04.54-.38l-1.69-.92c-.28.06-.17.37-.13.54Z"/>
    <path class="cls-1" d="M411.02,156.79s-.02-.07-.03-.2l-.03.03h0c-.05.17-.14.19-.19.22l-4.19,2.95h-.01c-.05.09-.12.16-.19.23-.03.03-.06.07-.1.11-.07.07-.16.15-.24.22-.63.55-1.49,1.09-2.43,1.54h-.02s-3.49,2.47-3.49,2.47c.69.28,1.27.14,1.76-.01.38-.12.7-.22.96-.13.06.03.13.07.19.14.16.17.31.53.24.86-.52,2.89-4.01,4.44-5,6.92-.63,1.56.81,4.98-.48,6.08-.83.7-1.83,1.18-2.28,2.24.25,1.24-.13,2.37-1.22,3.11-.53,1.53-1.48,2.75-2.81,3.64-.66.45-3.23.87-3.86.44-.69-.49-1.33-4-1.92-5.79l-.92-2.78c-.33-1.01.41-1.87.63-2.78.47-1.97-.65-3.75-1.6-5.34-.39-.67.01-1.69,0-2.33-.02-.91-.88-.78-1.37-1.12-.87-.61-1.59-.97-2.62-.54-.81.32-1.72.22-2.55.39-1.36.29-2.59-.16-3.49-1.37l-1.92-2.59c-.6-.8-.2-2.02,0-2.93-.41-2.49.61-4.72,2.81-6.06.21-1.73,1.35-2.73,2.61-3.57.04-.24.21-.47.34-.69l-2.03-.56c-.25-.99-.49-2.43.14-3.34.53-.76,2.7.12,3.1-.74s-1.04-1.62-.92-2.15c.03-.17.25-.52.51-.57,1.42-.25,2.19-1.18,3.23-2.08.1-.09.2-.16.3-.23.3-.23.61-.46.81-.72,0,0,.02-.01.01-.01l.34-.85v-.02c0-.13-.01-.25-.04-.4.14-.02.21-.08.27-.15h.01s0-.02.01-.03h0s.04-.11.04-.11v-.04s.01-.01.01-.01t.01-.02v-.03s.02-.03.03-.04l.41-.38c-.31-.48-.96-.44-1.45-.84-.79-.65-.7-2.2.18-2.75,3.34-2.09,4.96-6.94,10.13-4.14l3.13.6c-.2-.38-.24-.84.1-1.17-5.72-4.82-12.59-8.12-20.06-9.47-.18.11-.19.32-.36.31-.34.89-.79,1.71-1.86,2.06-.58,1.07-.74,2.21-.66,3.41l-1.21,1.73c.16,2.62-2.13,2.28-5.63,4.22-3.42,1.88-2.7,3.73-4.04,4.18-.28.1-.7-.15-1.09-.24-1.68-.44-2.71-3.74-1.47-5.75l-.86-2.96c-.21-.72-.89-1.2-1.64-1.28l-1.59-.17c-.52-.06-.96-.16-1.05-.65-.25-1.23,2.39-1.38,2.14-3.56l.19-.55-.46.12c-7.36,1.87-13.83,5.84-19.22,11.28l.1.25c.41.2.89,1.06,1.5.95l3.35-.65c1.06-.21.9-2.03,1.69-2.37.73-.31,1.22,1.45,1.97,1.16.87-.34-.13-1.67.47-2.67.42-.69,1.06-.53,1.84-.58,5.26-.39,5.88,2.74,6.75,2.98.39.11.72.78.63,1.16-.07.32-.51.74-.88.9-.76.33-.76.81-1.09,1.38-.5.87-1.86.75-2.62,1.03l-.16.18.57.61c.3.65.9.86,1.55.51,1.56-.82.82,1.99,3.17,3.01l.73,2.61c.13.44.64,1.3.15,1.67-1.38,1.03-2.64-1.19-3.55-1.2-.37,0-1.16.01-1.15.71.01.63.81.92.97,1.6-.58.83-1.79,1.34-2.69.65-.89.2-1.42.86-1.72,1.68-1.82.68-2.38,2.25-3.17,3.77-.49.94-2.04,1.19-2.26,2.4l.19,2.33c.04.41-.54.74-.86.68-.78-.13-.37-1.65-1.57-2.37-.56-.34-1.2-.03-1.92.12-1.09.21-2.26.15-3.13,1.04-.96.98-1.08,3.9.1,4.47,1.48.72,2.26-1.77,3.55-1.13.87.45-.85,2.66.89,2.67,1.91.01.23,3.18,2.39,3.25.58.02,1.18.14,1.79-.04,1.96-2.14,3.17-.76,6.52-.35.93.12,1.53,1.09,2.19,1.68.92.82,2.96.24,3.58,2.27.3.98.82,1.56,1.74,1.88l3.97,1.36c.75.27,1.59.57,1.82,1.41.15.56.12,1.52-.42,2.08-1.94,2.05-.55,5.17-2.4,6.4-.67.44-2.21.62-2.45,1.54-.53,1.99-1.12,3.77-2.7,5.22-.4.36-.58,1.39-1.15,1.59-1.9.7-2.45,3-2.16,5.08l-.18,2.51c.33-.11.73.2.92.46.16.22.07.88-.22.8-.44-.12-.4-.04-.48.18-.08.28-.27.08-.32-.13,0,.11-.07.18-.14.21-.19.09-3.05-1.35-3.29-4.87l-.89-4.75c.07-2.06.17-4.03-.07-6.12-.16-1.36.2-2.75-.8-4-.57-.7-1.94-.91-2.43-1.74l-2.62-4.4c-.87-1.45.21-3.47,1.06-4.65.41-.58.19-1.13.05-1.53-.21-.65-.92-.57-1.5-.64-1.56-.16-2.11-1.69-3.24-2.49-.71-.5-1.93-1.33-2.69-1.47-1.46-.28-2.56-.32-3.84-1.2-.66-.47-1.36-.84-1.33-1.85.05-1.24-.79-2.03-1.76-2.55,0,.34-.12.55-.54.38-.12-.05-.49.06-.64.06.1,0-.62-.75-.64-.83-.04-.17-.15-.48.13-.54-.71-.34-.8-1.48-2-1.56l-.34-.3c-5.36,26.69,14.51,51.34,41.29,52.15,26.71.82,47.93-22.44,44.41-49.29ZM402.82,178.47l-1.66,4.05c-.28.66-1.04.89-1.48.69-1.19-.52-.12-4.11.28-4.69l2.26-2.26c.92-.02.88,1.49.6,2.21Z"/>
    <path class="cls-2" d="M403.25,165.22c-.52,2.89-4.01,4.44-5,6.92-.63,1.56.81,4.98-.48,6.08-.83.7-1.83,1.18-2.28,2.24.25,1.24-.13,2.37-1.22,3.11-.53,1.53-1.48,2.75-2.81,3.64-.66.45-3.23.87-3.86.44-.69-.49-1.33-4-1.92-5.79l-.92-2.78c-.33-1.01.41-1.87.63-2.78.47-1.97-.65-3.75-1.6-5.34-.39-.67.01-1.69,0-2.33-.02-.91-.88-.78-1.37-1.12-.87-.61-1.59-.97-2.62-.54-.81.32-1.72.22-2.55.39-1.36.29-2.59-.16-3.49-1.37l-1.92-2.59c-.6-.8-.2-2.02,0-2.93-.41-2.49.61-4.72,2.81-6.06.21-1.73,1.35-2.73,2.61-3.57l22.48,13.79.36-.27h.01c.69.28,1.27.14,1.76-.01.38-.12.7-.22.96-.13.06.03.13.07.19.14.16.17.31.53.24.86Z"/>
  </g>
  <polygon class="cls-2" points="155.4 134.23 58.37 231.42 152.44 232.01 143.85 262.83 0 262.83 5.92 237.05 104.74 138.53 20.59 138.53 29.92 107.86 162.51 107.86 155.4 134.23"/>
  <path class="cls-2" d="M346.51,214.97l-7.4,47.86h-36.74c4.64-27.71,9.28-55.41,13.92-83.12,1.24,4.56,3.94,12.16,10.07,19.78,7.26,9.01,15.65,13.48,20.15,15.48Z"/>
  <path class="cls-2" d="M344.2,121.25s0-.01.02-.01c1.83-.75,3.26-1.21,4.07-1.45l-4.09,1.46Z"/>
  <path class="cls-2" d="M526.29,1.27c-1.52-.59-4.11-1.36-7.37-1.26-2.66.08-4.79.72-6.19,1.26-23.48,8.25-46.96,16.49-70.44,24.74l-64.89-20.67c-1.92.23-4.16.63-6.59,1.34-3.27.95-5.98,2.18-8.07,3.33,14.89,9.56,29.77,19.11,44.66,28.67l-242.22,88.22-2.67,10.44-54.66,54.67,123.78-56.44c1.58.32,3.7.93,5.99,2.14,3.13,1.67,5.22,3.75,6.45,5.19,5.19,19.04,10.37,38.07,15.56,57.11l44.88-75.55,8.89-3.56-56,96.22-19.11-72-166,79.56h76.22l19.78-9.56-7.33,47.71h36.22l14.89-89.93,23.11,89.93h29.56l50.66-89.93c-.61-3.6-2.64-17.99,6.22-32.52,6.89-11.3,16.75-16.73,22.58-19.13-4.25,3.04-11.6,9.13-17.25,19.28-6.27,11.26-7.26,21.79-7.4,27.11.17,4.78,1.25,16.28,9.33,27.41,11.72,16.14,29.33,19.33,33.04,19.92l-7.07,47.86h37.66l6-42.71,30.34.22,32.44,42.49h44.11l-38.55-47.86c4.71-.87,24.55-5.07,38.33-23.63,10.54-14.21,11.73-29.01,11.89-34.66.23-4.45.33-17.71-8.63-29.93-14.68-20.01-40.14-18.86-42.15-18.74h-91.66L526.29,7.12c.28-.33.94-1.18,1.07-2.44.2-1.85-.86-3.16-1.07-3.41ZM267.84,131.42l-10.55-7.04,43.89-20.45,9.63,6.97-42.97,20.52ZM388.73,124.97c8.09,4.23,13.05,9.87,15.56,13.19h51.4c1.28-.12,10.23-.77,17.04,6.07,5.4,5.42,5.98,12.06,6.08,13.78.1,2.18.32,11.78-6.82,20.3-7.57,9.03-17.84,10.18-19.85,10.37-15.51.19-31.01.39-46.52.59-2.03,3.43-7.01,10.76-16.44,16-8.6,4.77-16.63,5.42-20.6,5.48-4.33-.24-11.99-1.24-20.29-5.63-7.35-3.88-12.14-8.8-14.82-12-2.18-2.88-9.8-13.62-9.03-29.04.69-13.72,7.61-22.93,10.07-25.92,2.21-3.16,7.41-9.68,16.59-14.08,8.86-4.24,16.9-4.34,20.74-4.15,3.91.39,10.13,1.51,16.89,5.04ZM334.66,99.19l-8.6-6.51,41.78-19.41,7.56,5.92-40.74,20ZM391.55,70.75l-6.23-4.44,19.71-9.19,6.37,4.15-19.85,9.48ZM426.66,53.27l-5.19-3.26,38.67-18.22,4,2.81-37.48,18.67Z"/>
  <path class="cls-1" d="M471.99,178.31c-7.57,9.03-17.84,10.18-19.85,10.37-15.51.19-31.01.39-46.52.59-2.03,3.43-7.01,10.76-16.44,16-8.6,4.77-16.63,5.42-20.6,5.48-4.33-.24-11.99-1.24-20.29-5.63-7.35-3.88-12.14-8.8-14.82-12-2.18-2.88-9.8-13.62-9.03-29.04.69-13.72,7.61-22.93,10.07-25.92,2.21-3.16,7.41-9.68,16.59-14.08,8.86-4.24,16.9-4.34,20.74-4.15,3.91.39,10.13,1.51,16.89,5.04,8.09,4.23,13.05,9.87,15.56,13.19h51.4c1.28-.12,10.23-.77,17.04,6.07,5.4,5.42,5.98,12.06,6.08,13.78.1,2.18.32,11.78-6.82,20.3Z"/>
  <polygon class="cls-1" points="310.81 110.9 267.84 131.42 257.29 124.38 301.18 103.93 310.81 110.9"/>
  <polygon class="cls-1" points="375.4 79.19 334.66 99.19 326.06 92.68 367.84 73.27 375.4 79.19"/>
  <polygon class="cls-1" points="411.4 61.27 391.55 70.75 385.32 66.31 405.03 57.12 411.4 61.27"/>
  <polygon class="cls-1" points="464.14 34.6 426.66 53.27 421.47 50.01 460.14 31.79 464.14 34.6"/>
</svg>